<mxfile host="app.diagrams.net" modified="2024-06-24T18:33:19.741Z" agent="Mozilla/5.0 (Windows NT 10.0; Win64; x64) AppleWebKit/537.36 (KHTML, like Gecko) Chrome/126.0.0.0 Safari/537.36" version="24.6.2" etag="-uP39_rojTUxrspywiWD" type="github">
  <diagram name="PÃ¡gina-1" id="FyYxJHU2MHq7EXibN0uH">
    <mxGraphModel>
      <root>
        <mxCell id="0" />
        <mxCell id="1" parent="0" />
      </root>
    </mxGraphModel>
  </diagram>
</mxfile>
